{"title":"Puss in Boots - Il Gatto con gli Stivali (2011).BRrip.XviD - Ita","uid":11690395,"size":1630525124,"categoryP":"video","categoryS":"movies","magnet":"?xt=urn:btih:4353df90356ac0659cbca0583970435877ba80fa&amp;dn=Puss+in+Boots+-+Il+Gatto+con+gli+Stivali+%282011%29.BRrip.XviD+-+Ita&amp;tr=udp%3A%2F%2Ftracker.openbittorrent.com%3A80&amp;tr=udp%3A%2F%2Fopen.demonii.com%3A1337&amp;tr=udp%3A%2F%2Ftracker.coppersurfer.tk%3A6969&amp;tr=udp%3A%2F%2Fexodus.desync.com%3A6969","seeders":22,"leechers":6,"uploader":"robbyrs4","files":4,"time":1423503549,"description":"Puss in Boots - Il Gatto con gli Stivali (2011).BRrip.XviD - Italian English.Ac3 5.1 Sub Ita Eng MIRCrew\n\nIl Gatto con gli Stivali - Puss in Boots (2011).BRrip.XviD - Italian English.Ac3 5.1 Sub Ita Eng MIRCrew\n\n\n\n[center]\n\n[color=red][b][img]http://s19.postimg.org/rr1b4yhxv/banner_mircrew_2015.png[/img]\n\n[u]NO FOUND ONLY ORIGINAL RELEASE[/u]\n\nIl Gatto con gli Stivali - Puss in Boots (2011)\n\n[img]http://s19.postimg.org/4zqho4q4z/image.jpg[/img]\n\n\n[URL=http://www.imdb.com/title/tt0448694/][IMG]http://www.userlogos.org/files/logos/Sucka/imdb_new.png[/IMG][/URL]  \n\n[img]http://imageshack.us/a/img534/6946/zcu.gif[/img]\n\nTitolo originale \tPuss in Boots\nPaese di produzione \tStati Uniti\nAnno \t2011\nDurata \t90 min\nGenere \tanimazione, azione, commedia, avventura\nRegia \tChris Miller\nSoggetto \tDavid H. Steinberg, Jon Zack\nSceneggiatura \tBrian Lynch, Tom Wheeler\nCasa di produzione \tDreamWorks Animation\nMontaggio \tEric Dapkewicz\nMusiche \tHenry Jackman\n\n[img]http://imageshack.us/a/img4/8946/u96.gif[/img]\n\n\nDoppiatori originali\n\n    Antonio Banderas: Gatto con gli stivali\n    Salma Hayek: Kitty\n    Zach Galifianakis: Humpty Dumpty\n    Billy Bob Thornton: Jack\n    Amy Sedaris: Jill\n    Zeus Mendoza: Rancher\n    Constance Marie: Imelda\n    Walt Dohrn: Voce narrante\n\n\n[img]http://imageshack.us/a/img844/6546/cupz.gif[/img]. \n\nIl gatto con gli stivali era considerato un abile combattente e fuorilegge. La fuga dal suo padrone e dalla gatta dal nome Rosa segna l'inizio della sua storia. Una notte, durante i festeggiamenti in un piccolo paese, coglie l'occasione per poter riscattare il suo nome.............\n\n[img]http://imageshack.us/a/img202/6180/4e6.gif[/img]\n\nYears before meeting Shrek and Donkey, the adorable but tricky Puss in Boots must clear his name from all charges making him a wanted fugitive. While trying to steal magic beans from the infamous criminals Jack and Jill, the hero crosses paths with his female match, Kitty Softpaws, who leads Puss to his old friend............\n\n &lt;a href=&quot;\nhttp://s19.postimg.org/cv112xzrn/vlcsnap_2015_02_09_17h28m26s89.png[/img]&quot; rel=&quot;nofollow&quot; target=&quot;_NEW&quot;&gt;\nhttp://s19.postimg.org/cv112xzrn/vlcsnap_2015_02_09_17h28m26s89.png[/img]&lt;/a&gt;\n\n &lt;a href=&quot;\nhttp://s19.postimg.org/3lyustqvn/vlcsnap_2015_02_09_17h28m32s158.png[/img]&quot; rel=&quot;nofollow&quot; target=&quot;_NEW&quot;&gt;\nhttp://s19.postimg.org/3lyustqvn/vlcsnap_2015_02_09_17h28m32s158.png[/img]&lt;/a&gt;\n &lt;a href=&quot;\nhttp://s19.postimg.org/5gbpakdw3/vlcsnap_2015_02_09_17h29m07s234.png[/img]&quot; rel=&quot;nofollow&quot; target=&quot;_NEW&quot;&gt;\nhttp://s19.postimg.org/5gbpakdw3/vlcsnap_2015_02_09_17h29m07s234.png[/img]&lt;/a&gt;\n\n\n\n[IMG]http://img153.imageshack.us/img153/3158/restateinseedblood.gif[/img]\n\n\n[img]http://imgur.com/lvhU6.gif[/img]\n\n\n[img]http://imageshack.us/a/img571/2166/an4p.gif[/img]\n\n\n[spoiler]\nGeneral\nComplete name                            : Il Gatto con gli Stivali - Puss in Boots (2011).ita.eng.sub.ita.eng.MIRCrewIl Gatto con gli Stivali - Puss in Boots (2011).ita.eng.sub.ita.eng.MIRCrew.avi\nFormat                                   : AVI\nFormat/Info                              : Audio Video Interleave\nFile size                                : 1.52 GiB\nDuration                                 : 1h 30mn\nOverall bit rate                         : 2 409 Kbps\nWriting application                      : VirtualDubMod 1.5.4.1 (build 2178/release)\nWriting library                          : VirtualDubMod build 2178/release\n\nVideo\nID                                       : 0\nFormat                                   : MPEG-4 Visual\nFormat profile                           : Simple@L3\nFormat settings, BVOP                    : No\nFormat settings, QPel                    : No\nFormat settings, GMC                     : No warppoints\nFormat settings, Matrix                  : Default (H.263)\nCodec ID                                 : XVID\nCodec ID/Hint                            : XviD\nDuration                                 : 1h 30mn\nBit rate                                 : 1 499 Kbps\nWidth                                    : 720 pixels\nHeight                                   : 304 pixels\nDisplay aspect ratio                     : 2.35:1\nFrame rate                               : 23.976 fps\nColor space                              : YUV\nChroma subsampling                       : 4:2:0\nBit depth                                : 8 bits\nScan type                                : Progressive\nCompression mode                         : Lossy\nBits/(Pixel*Frame)                       : 0.286\nStream size                              : 967 MiB (62%)\nWriting library                          : XviD 64\n\nAudio #1\nID                                       : 1\nFormat                                   : AC-3\nFormat/Info                              : Audio Coding 3\nMode extension                           : CM (complete main)\nCodec ID                                 : 2000\nDuration                                 : 1h 30mn\nBit rate mode                            : Constant\nBit rate                                 : 448 Kbps\nChannel(s)                               : 6 channels\nChannel positions                        : Front: L C R, Side: L R, LFE\nSampling rate                            : 48.0 KHz\nBit depth                                : 16 bits\nCompression mode                         : Lossy\nStream size                              : 289 MiB (19%)\nAlignment                                : Split accross interleaves\nInterleave, duration                     : 42 ms (1.00 video frame)\nInterleave, preload duration             : 500 ms\n\nAudio #2\nID                                       : 2\nFormat                                   : AC-3\nFormat/Info                              : Audio Coding 3\nMode extension                           : CM (complete main)\nCodec ID                                 : 2000\nDuration                                 : 1h 30mn\nBit rate mode                            : Constant\nBit rate                                 : 448 Kbps\nChannel(s)                               : 6 channels\nChannel positions                        : Front: L C R, Side: L R, LFE\nSampling rate                            : 48.0 KHz\nBit depth                                : 16 bits\nCompression mode                         : Lossy\nStream size                              : 289 MiB (19%)\nAlignment                                : Split accross interleaves\nInterleave, duration                     : 42 ms (1.00 video frame)\nInterleave, preload duration             : 500 ms\n\n\n\n\n[/spoiler]\n\n[/color][/b][/center]\n\n&amp;&amp;e4t67uk","torrent":{"xt":"urn:btih:4353df90356ac0659cbca0583970435877ba80fa","amp;dn":"Puss+in+Boots+-+Il+Gatto+con+gli+Stivali+%282011%29.BRrip.XviD+-+Ita","amp;tr":["udp%3A%2F%2Ftracker.openbittorrent.com%3A80","udp%3A%2F%2Fopen.demonii.com%3A1337","udp%3A%2F%2Ftracker.coppersurfer.tk%3A6969","udp%3A%2F%2Fexodus.desync.com%3A6969"],"infoHash":"4353df90356ac0659cbca0583970435877ba80fa","infoHashBuffer":{"type":"Buffer","data":[67,83,223,144,53,106,192,101,156,188,160,88,57,112,67,88,119,186,128,250]},"announce":[],"urlList":[]}}